<svg width="390" height="66" viewBox="0 0 390 66" fill="none" xmlns="http://www.w3.org/2000/svg">
<g clip-path="url(#clip0_8_518)">
<g clip-path="url(#clip1_8_518)">
<g clip-path="url(#clip2_8_518)">
<g clip-path="url(#clip3_8_518)">
<g clip-path="url(#clip4_8_518)">
<g clip-path="url(#clip5_8_518)">
<g clip-path="url(#clip6_8_518)">
<g clip-path="url(#clip7_8_518)">
<path d="M122.084 16.5918L120.379 20.2586C116.044 17.7298 111.246 16.2757 105.984 15.8964V56.3576H101.312V15.8964C96.1355 16.2336 91.3162 17.6877 86.8547 20.2586L85.1501 16.5918C90.6217 13.3465 96.7668 11.7238 103.585 11.7238C110.53 11.7238 116.696 13.3465 122.084 16.5918ZM141.782 56.6737C138.583 56.6737 135.7 55.9446 133.132 54.4863C130.565 53.0364 128.544 51.026 127.071 48.455C125.598 45.8841 124.862 42.9759 124.862 39.7306C124.862 36.4853 125.598 33.5771 127.071 31.0061C128.544 28.4352 130.565 26.4332 133.132 25.0002C135.7 23.5672 138.583 22.8507 141.782 22.8507C144.98 22.8507 147.864 23.5672 150.431 25.0002C152.999 26.4332 155.006 28.4352 156.454 31.0061C157.91 33.5771 158.639 36.4853 158.639 39.7306C158.639 42.9759 157.91 45.8841 156.454 48.455C155.006 51.026 152.999 53.0364 150.431 54.4863C147.864 55.9446 144.98 56.6737 141.782 56.6737ZM141.782 52.6908C144.139 52.6908 146.252 52.1555 148.12 51.085C149.998 50.006 151.462 48.4761 152.514 46.4952C153.567 44.5143 154.093 42.2594 154.093 39.7306C154.093 37.2018 153.567 34.9469 152.514 32.966C151.462 30.9851 149.998 29.4551 148.12 28.3762C146.252 27.3056 144.139 26.7704 141.782 26.7704C139.425 26.7704 137.308 27.3056 135.43 28.3762C133.562 29.4551 132.088 30.9851 131.011 32.966C129.942 34.9469 129.407 37.2018 129.407 39.7306C129.407 42.2594 129.942 44.5143 131.011 46.4952C132.088 48.4761 133.562 50.006 135.43 51.085C137.308 52.1555 139.425 52.6908 141.782 52.6908ZM193.236 23.1036H197.719V56.3576H193.426V50.2884C192.247 52.3115 190.627 53.8836 188.564 55.0047C186.493 56.1174 184.136 56.6737 181.493 56.6737C177.158 56.6737 173.736 55.4599 171.228 53.0322C168.719 50.613 167.465 47.0642 167.465 42.3858V23.1036H171.96V41.9433C171.96 45.4415 172.823 48.0968 174.548 49.9091C176.274 51.7214 178.736 52.6276 181.935 52.6276C185.429 52.6276 188.181 51.5613 190.193 49.4286C192.222 47.3044 193.236 44.3457 193.236 40.5525V23.1036ZM214.563 29.6153C215.615 27.3815 217.185 25.6956 219.273 24.5576C221.352 23.4197 223.928 22.8507 227 22.8507V27.2129L225.927 27.1497C222.434 27.1497 219.698 28.2244 217.72 30.3739C215.742 32.5234 214.752 35.5369 214.752 39.4145V56.3576H210.27V23.1036H214.563V29.6153ZM235.587 56.3576V23.1036H240.069V56.3576H235.587ZM237.86 15.8332C236.934 15.8332 236.155 15.5171 235.524 14.8849C234.892 14.2527 234.577 13.494 234.577 12.6089C234.577 11.766 234.892 11.0284 235.524 10.3962C236.155 9.76401 236.934 9.44791 237.86 9.44791C238.786 9.44791 239.564 9.75136 240.196 10.3583C240.827 10.9736 241.143 11.7028 241.143 12.5457C241.143 13.4729 240.827 14.2527 240.196 14.8849C239.564 15.5171 238.786 15.8332 237.86 15.8332ZM261.472 56.6737C258.778 56.6737 256.198 56.2817 253.732 55.4978C251.274 54.7223 249.35 53.7445 247.961 52.5644L249.981 49.024C251.37 50.1198 253.117 51.0134 255.222 51.7046C257.326 52.4042 259.515 52.754 261.788 52.754C264.818 52.754 267.057 52.2778 268.505 51.3252C269.961 50.3811 270.689 49.0451 270.689 47.3171C270.689 46.0948 270.29 45.1338 269.49 44.4342C268.69 43.743 267.68 43.2161 266.459 42.8537C265.239 42.4996 263.618 42.154 261.598 41.8169C258.904 41.3111 256.737 40.7927 255.095 40.2616C253.454 39.739 252.052 38.8455 250.891 37.5811C249.737 36.3167 249.161 34.5676 249.161 32.3338C249.161 29.5521 250.318 27.2761 252.633 25.5059C254.948 23.7358 258.168 22.8507 262.293 22.8507C264.439 22.8507 266.586 23.1331 268.732 23.6978C270.879 24.271 272.647 25.0213 274.036 25.9485L272.078 29.5521C269.343 27.6554 266.081 26.7071 262.293 26.7071C259.431 26.7071 257.271 27.2129 255.815 28.2244C254.367 29.236 253.643 30.5636 253.643 32.2073C253.643 33.4717 254.051 34.4833 254.868 35.2419C255.693 36.0006 256.716 36.5569 257.936 36.9109C259.157 37.2734 260.841 37.6443 262.987 38.0236C265.639 38.5294 267.764 39.0352 269.364 39.5409C270.963 40.0467 272.331 40.9107 273.467 42.133C274.604 43.3552 275.172 45.0411 275.172 47.1906C275.172 50.0988 273.96 52.4042 271.535 54.107C269.12 55.8181 265.765 56.6737 261.472 56.6737ZM324.859 22.8507C329.026 22.8507 332.296 24.0519 334.67 26.4543C337.052 28.8566 338.243 32.397 338.243 37.0753V56.3576H333.761V37.5179C333.761 34.0618 332.927 31.4276 331.261 29.6153C329.602 27.803 327.258 26.8968 324.227 26.8968C320.776 26.8968 318.061 27.9589 316.083 30.0831C314.105 32.2158 313.116 35.1576 313.116 38.9087V56.3576H308.633V37.5179C308.633 34.0618 307.8 31.4276 306.133 29.6153C304.475 27.803 302.109 26.8968 299.037 26.8968C295.628 26.8968 292.921 27.9589 290.918 30.0831C288.923 32.2158 287.925 35.1576 287.925 38.9087V56.3576H283.443V23.1036H287.736V29.1727C288.914 27.1497 290.556 25.5902 292.66 24.4944C294.765 23.3986 297.185 22.8507 299.921 22.8507C302.699 22.8507 305.106 23.4407 307.143 24.6209C309.189 25.801 310.717 27.5501 311.727 29.8682C312.947 27.6765 314.703 25.9569 316.992 24.7094C319.29 23.4702 321.913 22.8507 324.859 22.8507ZM363.99 56.6737C360.791 56.6737 357.908 55.9446 355.34 54.4863C352.773 53.0364 350.752 51.026 349.279 48.455C347.806 45.8841 347.069 42.9759 347.069 39.7306C347.069 36.4853 347.806 33.5771 349.279 31.0061C350.752 28.4352 352.773 26.4332 355.34 25.0002C357.908 23.5672 360.791 22.8507 363.99 22.8507C367.188 22.8507 370.071 23.5672 372.639 25.0002C375.206 26.4332 377.218 28.4352 378.675 31.0061C380.122 33.5771 380.846 36.4853 380.846 39.7306C380.846 42.9759 380.122 45.8841 378.675 48.455C377.218 51.026 375.206 53.0364 372.639 54.4863C370.071 55.9446 367.188 56.6737 363.99 56.6737ZM363.99 52.6908C366.347 52.6908 368.464 52.1555 370.341 51.085C372.21 50.006 373.67 48.4761 374.722 46.4952C375.775 44.5143 376.301 42.2594 376.301 39.7306C376.301 37.2018 375.775 34.9469 374.722 32.966C373.67 30.9851 372.21 29.4551 370.341 28.3762C368.464 27.3056 366.347 26.7704 363.99 26.7704C361.633 26.7704 359.52 27.3056 357.651 28.3762C355.774 29.4551 354.301 30.9851 353.231 32.966C352.154 34.9469 351.615 37.2018 351.615 39.7306C351.615 42.2594 352.154 44.5143 353.231 46.4952C354.301 48.4761 355.774 50.006 357.651 51.085C359.52 52.1555 361.633 52.6908 363.99 52.6908Z" fill="#032D23"/>
</g>
</g>
</g>
</g>
<g clip-path="url(#clip8_8_518)">
<g clip-path="url(#clip9_8_518)">
<path d="M9.56609 47.6841C8.99469 48.1973 8.43965 48.7291 7.90096 49.2784C7.74394 49.4378 7.59236 49.6027 7.43752 49.7654C7.04277 50.1825 6.65675 50.6094 6.27946 51.0462C6.11589 51.2362 5.94796 51.4218 5.78766 51.614C5.34385 52.1502 4.9153 52.7027 4.49983 53.2661C4.31118 53.5216 4.12908 53.7837 3.94588 54.0447C3.65364 54.4618 3.37121 54.8877 3.09424 55.319C2.94811 55.5472 2.79654 55.7711 2.65478 56.0036C2.64824 56.0167 2.64061 56.0277 2.63297 56.0408C2.6297 56.0451 2.6297 56.0517 2.62752 56.0561C1.7279 57.5389 0.917687 59.0917 0.220886 60.7187L2.22514 61.5791C2.46722 61.0135 2.74093 60.4675 3.01027 59.9194L3.78995 64.6049C3.87609 65.1301 4.33081 65.5167 4.86404 65.5167H9.22587C9.36435 65.5167 9.50175 65.4905 9.63152 65.4391L14.8123 63.3633L22.1565 64.4138C22.657 64.4881 23.1368 64.2063 23.3233 63.739L25.3711 58.6101L33.7927 53.3393C34.0653 53.169 34.2485 52.8861 34.2943 52.5673L35.3848 44.9237C35.4644 44.3701 35.1122 43.8459 34.5702 43.7094L30.3774 42.6601L27.8029 41.0331C27.9817 40.9992 28.1605 40.9632 28.3405 40.9326C28.9162 40.8333 29.4931 40.7503 30.0732 40.6793C30.3534 40.6454 30.6348 40.6127 30.9172 40.5854C31.4897 40.5297 32.0644 40.4904 32.639 40.4631C32.9367 40.4489 33.2355 40.4369 33.5354 40.4303C34.1308 40.4172 34.7262 40.4194 35.3226 40.4358C35.5429 40.4423 35.7632 40.4478 35.9835 40.4587C35.9987 40.4598 36.0151 40.4598 36.0303 40.4609C36.6388 40.4904 37.2473 40.5417 37.8547 40.6029C38.0891 40.6269 38.3236 40.6454 38.5569 40.6749C39.16 40.7481 39.7597 40.8464 40.3595 40.9512C40.5961 40.9927 40.836 41.0254 41.0715 41.0724C41.6931 41.1947 42.3092 41.3454 42.9253 41.5015C43.7148 41.7035 44.4955 41.9307 45.2665 42.1862C45.6045 42.2986 45.9404 42.4166 46.2752 42.5389C46.719 42.7016 47.1606 42.8686 47.5979 43.0488C47.9338 43.1875 48.2642 43.3371 48.5946 43.4867C48.7156 43.5413 48.8356 43.5992 48.9566 43.6548L44.9121 44.8123C44.6002 44.9018 44.344 45.1257 44.2131 45.4227C44.0823 45.7197 44.091 46.0604 44.236 46.3509L44.9754 47.8304L41.1697 51.6413C40.7433 52.0683 40.7433 52.7584 41.1697 53.1853L45.5315 57.5531C45.7627 57.7846 46.08 57.9036 46.4104 57.8676C46.7353 57.8359 47.0287 57.659 47.2097 57.3871L51.2466 51.3214H53.9345V55.0547L46.8509 59.108C46.767 59.1561 46.6895 59.215 46.6208 59.2838L44.4399 61.4677C44.0725 61.8357 44.0147 62.4123 44.3036 62.8458L46.4845 66.1216L48.2991 64.9106L46.6143 62.3795L48.0602 60.9316L55.5669 56.6359C55.9061 56.4426 56.1154 56.0812 56.1154 55.6892V50.2294C56.1154 49.6267 55.6269 49.1375 55.025 49.1375H50.6632C50.299 49.1375 49.9587 49.3199 49.7559 49.6234L46.1323 55.0668L43.4814 52.4133L47.0723 48.8176C47.4038 48.4856 47.4867 47.9779 47.2773 47.5575L46.7746 46.5507L51.7874 45.117C51.83 45.1421 51.8747 45.1628 51.9172 45.1879C52.084 45.2862 52.2421 45.3954 52.4079 45.4959C52.9379 45.8191 53.4656 46.1478 53.9803 46.4994C54.4503 46.8215 54.9083 47.1578 55.3608 47.5007C55.4819 47.5924 55.6073 47.6754 55.7272 47.7682C59.4315 50.6542 62.5306 54.2642 64.8282 58.4026L64.8325 58.4005C64.8336 58.4026 64.8347 58.4037 64.8358 58.4059L66.7419 57.3456C65.4835 55.0766 64.0027 52.9768 62.3441 51.0582C62.3136 51.0233 62.2798 50.9905 62.2493 50.9545C61.7302 50.3594 61.197 49.7807 60.643 49.2227C60.5252 49.1036 60.3998 48.9934 60.281 48.8754C59.8066 48.4103 59.3279 47.9506 58.8307 47.5127C58.642 47.3467 58.4447 47.1906 58.2527 47.0279C57.8122 46.6544 57.3706 46.2832 56.9137 45.9315C56.665 45.7405 56.4066 45.5614 56.1536 45.3757C56.1373 45.3637 56.122 45.3528 56.1056 45.3408L58.2015 40.3026L61.4619 33.229L64.7246 26.6948C64.8576 26.4283 64.8762 26.1182 64.7758 25.8376C64.6755 25.557 64.464 25.3298 64.1924 25.2086L63.8969 25.0776L65.815 21.235C66.0615 20.7426 65.9023 20.1431 65.4443 19.8384L62.1729 17.6546L58.9016 15.4707C58.6409 15.296 58.3171 15.2425 58.0161 15.3243C57.7141 15.4041 57.4611 15.6115 57.3204 15.8911L54.7633 21.0134L54.3773 20.8419C53.8418 20.6039 53.2192 20.8288 52.9586 21.3508L49.6872 27.9025L46.4158 34.4541C46.4104 34.465 46.4115 34.476 46.4071 34.4869C46.4028 34.4967 46.3929 34.5033 46.3897 34.512L44.5457 38.8219L43.0125 30.3801C42.9177 29.8603 42.4662 29.4825 41.9395 29.4825H40.5808L38.6256 22.6305C38.4926 22.1621 38.064 21.8389 37.5777 21.8389H37.4109L35.3815 9.64733C35.3761 9.61239 35.3564 9.584 35.3466 9.55015C36.0227 9.17888 36.4872 8.46912 36.4872 7.64361V5.45972C36.4872 4.25531 35.5091 3.27583 34.3063 3.27583V0H32.1254V3.27583C30.9227 3.27583 29.9445 4.25531 29.9445 5.45972V7.64361C29.9445 8.46912 30.409 9.17888 31.084 9.55124C31.0753 9.58509 31.0557 9.61348 31.0491 9.64842L29.0209 21.8389H28.8541C28.3677 21.8389 27.9392 22.1621 27.8061 22.6305L25.8509 29.4825H24.4922C23.9655 29.4825 23.5141 29.8603 23.4192 30.379L21.8479 39.0315L17.871 29.0763L13.5092 18.1569C13.5037 18.1427 13.4906 18.1328 13.4841 18.1186C13.4383 18.016 13.3761 17.9232 13.3009 17.838C13.2835 17.8183 13.2682 17.7976 13.2496 17.779C13.2387 17.7692 13.2322 17.7561 13.2213 17.7463L3.4072 9.01072C3.0986 8.73665 2.66242 8.66021 2.27748 8.81308C1.89364 8.96705 1.62975 9.32411 1.59595 9.73687L0.505495 22.8402C0.504405 22.8544 0.507676 22.8686 0.507676 22.8828C0.506586 22.909 0.510947 22.9352 0.510947 22.9614C0.514219 23.075 0.533847 23.1863 0.570922 23.2912C0.576375 23.3065 0.573103 23.3217 0.579646 23.3359L4.94147 34.2554L10.1146 47.2069C10.0328 47.2779 9.95102 47.3478 9.86924 47.4199C9.76891 47.5083 9.66641 47.5946 9.56609 47.6841ZM27.5237 38.8405C28.8617 37.0955 30.9499 36.0342 33.2159 36.0342C35.3106 36.0342 37.2593 36.9481 38.5995 38.4725C38.4926 38.4605 38.3868 38.4583 38.281 38.4474C37.9714 38.4146 37.6628 38.3829 37.352 38.3578C36.9703 38.3262 36.5865 38.3021 36.2026 38.2825C36.0009 38.2716 35.7981 38.2563 35.5974 38.2497C35.3837 38.2421 35.17 38.2443 34.9562 38.241C34.7393 38.2366 34.5244 38.2181 34.3063 38.2181C34.0981 38.2181 33.8931 38.2377 33.6848 38.241C33.5888 38.2432 33.4918 38.2388 33.3958 38.241C33.0163 38.2497 32.639 38.2726 32.2606 38.2934C31.8768 38.3141 31.493 38.3349 31.1102 38.3676C30.9379 38.3829 30.7656 38.396 30.5933 38.4135C30.2378 38.4495 29.8834 38.4987 29.5291 38.5445C29.2128 38.5849 28.8955 38.6188 28.5804 38.6679C28.4092 38.6941 28.239 38.7302 28.0678 38.7597C27.8879 38.7902 27.7047 38.8066 27.5237 38.8405ZM29.6795 44.737L33.0872 45.5898L32.2072 51.756L23.9143 56.946C23.718 57.0694 23.5654 57.2517 23.4792 57.4668L21.6167 62.1305L14.8319 61.1598C14.6411 61.1325 14.4491 61.1554 14.2725 61.2264L9.0165 63.3328H5.78875L4.70702 56.8335C4.71901 56.815 4.73101 56.7975 4.743 56.7789C5.07886 56.2428 5.43217 55.7197 5.7942 55.2054C5.9665 54.9608 6.14206 54.7195 6.3198 54.4804C6.66002 54.0218 7.01006 53.5719 7.371 53.1318C7.53675 52.9298 7.70686 52.7311 7.87697 52.5324C8.25536 52.0923 8.64465 51.661 9.04376 51.2417C9.18879 51.0888 9.33382 50.9348 9.48212 50.7852C9.98809 50.272 10.5072 49.7719 11.0426 49.2915C11.12 49.2227 11.1996 49.1561 11.277 49.0884C11.6325 48.7761 12.0033 48.4812 12.3707 48.1831C12.9236 47.7354 13.4895 47.3085 14.0664 46.8968C14.254 46.7625 14.4393 46.6249 14.6302 46.495C15.2332 46.0822 15.8515 45.6946 16.4774 45.3212C16.6431 45.2229 16.8034 45.117 16.9703 45.0209C17.7412 44.5786 18.5274 44.1648 19.3322 43.7826C19.3922 43.7542 19.4532 43.7258 19.5143 43.6974C20.3223 43.3185 21.1456 42.9702 21.9842 42.6535C22.4258 42.4865 22.8773 42.3412 23.3265 42.1927C23.8238 42.0278 24.3254 41.8772 24.8292 41.7352L29.3644 44.6016C29.4604 44.6627 29.5672 44.7086 29.6795 44.737ZM46.321 40.2152L47.9381 36.4371L55.8068 40.3768L54.2726 44.0654C54.0381 43.9147 53.796 43.7815 53.5594 43.6374C53.3206 43.4921 53.0818 43.3458 52.8397 43.205C52.7438 43.1493 52.6511 43.0892 52.5551 43.0346C52.5278 43.0193 52.5028 43.0008 52.4755 42.9855L52.4722 42.9844C52.0949 42.7715 51.71 42.5771 51.3262 42.3784C51.1604 42.2921 50.9968 42.2026 50.8289 42.1185C50.191 41.7996 49.5444 41.5004 48.8901 41.2187C48.8356 41.1947 48.781 41.1685 48.7265 41.1456C47.9348 40.8103 47.1355 40.4948 46.321 40.2152ZM61.9014 24.1898L60.3279 23.4899L61.9908 20.1584L63.4335 21.1215L61.9014 24.1898ZM58.7195 17.9734L60.1621 18.9365L58.3323 22.6011L56.7588 21.9011L58.7195 17.9734ZM54.242 23.6657C54.2987 23.7258 54.3489 23.7913 54.4209 23.8393L57.6922 26.0232L60.9636 28.2071C61.1097 28.3054 61.2777 28.3534 61.4489 28.3731L59.9691 31.3366L57.3629 30.177L52.1505 27.8566L54.242 23.6657ZM51.1724 29.8123L52.481 30.3943L59.0237 33.3065L56.6868 38.3753L48.8541 34.4541L51.1724 29.8123ZM32.1254 5.45972H34.3063L34.3074 7.64361H32.1254V5.45972ZM33.049 10.9194H33.3827L35.2005 21.8389H31.2323L33.049 10.9194ZM29.6763 24.0228H29.9445H36.4872H36.7555L38.3138 29.4825H28.1191L29.6763 24.0228ZM25.4017 31.6664H26.6732H39.7586H41.0301L42.3812 39.1091C42.2699 39.084 42.1565 39.0687 42.0453 39.0457C41.8654 39.0075 41.6855 38.9682 41.5044 38.9322C39.9047 35.8343 36.7271 33.8503 33.2159 33.8503C29.4767 33.8503 26.1094 36.0702 24.6264 39.5055C24.4737 39.5469 24.3243 39.5961 24.1727 39.6387C24.0964 39.6605 24.0201 39.6758 23.9437 39.6976L25.4017 31.6664ZM20.1097 41.0484C19.6757 41.2274 19.2471 41.4164 18.8219 41.6118C18.6768 41.6784 18.5307 41.7428 18.3857 41.8116C17.6573 42.1578 16.9408 42.5258 16.2386 42.9167C16.1623 42.9593 16.0892 43.004 16.0129 43.0466C15.9954 43.0565 15.978 43.0674 15.9594 43.0772C15.93 43.0936 15.9016 43.1111 15.8733 43.1274C15.2506 43.4834 14.64 43.8579 14.0402 44.2489C13.965 44.298 13.8876 44.346 13.8123 44.3952C13.1559 44.8309 12.5136 45.2851 11.8866 45.7623L7.37209 34.4585L16.2517 30.902L20.2754 40.9741C20.2187 40.997 20.1653 41.0254 20.1097 41.0484ZM3.01027 23.539L11.8898 19.9826L15.4415 28.8732L6.56188 32.4307L3.01027 23.539ZM3.5893 12.0944L10.4548 18.2049L2.82598 21.2602L3.5893 12.0944Z" fill="#032D23"/>
<path d="M9.22589 22.9308C7.42228 22.9308 5.95453 24.4006 5.95453 26.2066C5.95453 28.0127 7.42228 29.4825 9.22589 29.4825C11.0295 29.4825 12.4973 28.0127 12.4973 26.2066C12.4973 24.4006 11.0295 22.9308 9.22589 22.9308ZM9.22589 27.2986C8.62505 27.2986 8.13544 26.8083 8.13544 26.2066C8.13544 25.605 8.62505 25.1147 9.22589 25.1147C9.82674 25.1147 10.3163 25.605 10.3163 26.2066C10.3163 26.8083 9.82674 27.2986 9.22589 27.2986Z" fill="#032D23"/>
</g>
</g>
</g>
</g>
</g>
</g>
<defs>
<clipPath id="clip0_8_518">
<rect width="390" height="66" fill="white"/>
</clipPath>
<clipPath id="clip1_8_518">
<rect width="390" height="66" fill="white" transform="translate(-0.236389 0.060791)"/>
</clipPath>
<clipPath id="clip2_8_518">
<rect width="389.085" height="66.1216" fill="white" transform="translate(0.220886)"/>
</clipPath>
<clipPath id="clip3_8_518">
<rect width="389.085" height="66.1216" fill="white" transform="translate(0.220886)"/>
</clipPath>
<clipPath id="clip4_8_518">
<rect width="295.696" height="47.8449" fill="white" transform="translate(85.1501 9.13837)"/>
</clipPath>
<clipPath id="clip5_8_518">
<rect width="295.696" height="47.8449" fill="white" transform="translate(85.1501 9.13837)"/>
</clipPath>
<clipPath id="clip6_8_518">
<rect width="295.696" height="47.8449" fill="white" transform="translate(85.1501 9.13837)"/>
</clipPath>
<clipPath id="clip7_8_518">
<rect width="295.696" height="47.8449" fill="white" transform="translate(85.1501 9.13837)"/>
</clipPath>
<clipPath id="clip8_8_518">
<rect width="66.521" height="66.1216" fill="white" transform="translate(0.220886)"/>
</clipPath>
<clipPath id="clip9_8_518">
<rect width="66.521" height="66.1216" fill="white" transform="translate(0.220886)"/>
</clipPath>
</defs>
</svg>
